<svg width="24" height="24" viewBox="0 0 24 24" fill="none" xmlns="http://www.w3.org/2000/svg">
<path d="M15 20C15 20.7956 14.6839 21.5587 14.1213 22.1213C13.5587 22.6839 12.7956 23 12 23C11.2044 23 10.4413 22.6839 9.87868 22.1213C9.31607 21.5587 9 20.7956 9 20C9 19.2044 9.31607 18.4413 9.87868 17.8787C10.4413 17.3161 11.2044 17 12 17C12.7956 17 13.5587 17.3161 14.1213 17.8787C14.6839 18.4413 15 19.2044 15 20Z" fill="#F39C12"/>
<path d="M12 0C11.172 0 10.5 0.67157 10.5 1.5C10.5 1.6829 10.534 1.8691 10.594 2.0312C9.2327 2.229 8.1406 2.7191 7.3438 3.5C6.4976 4.3288 6.0937 5.4648 6.0938 6.875C6.0937 9.1143 5.6362 11.256 4.7812 13.281C3.9263 15.298 2.6747 16.968 1 18.344C1 18.788 1.1651 19.175 1.5 19.5C1.8349 19.825 2.2292 20 2.6875 20H5.9688H8.5938H9.0625H9.6562H10.094H10.656H15.406H21.312C21.771 20 22.165 19.825 22.5 19.5C22.835 19.175 23 18.788 23 18.344C21.325 16.968 20.074 15.298 19.219 13.281C18.364 11.256 17.906 9.1143 17.906 6.875C17.906 5.4648 17.502 4.3288 16.656 3.5C15.859 2.7191 14.767 2.229 13.406 2.0312C13.466 1.8691 13.5 1.6829 13.5 1.5C13.5 0.67157 12.828 0 12 0V0Z" fill="#F1C40F"/>
<path d="M12 17C10.343 17 9 18.3 9 20C9 21.6 10.343 23 12 23V17Z" fill="#E67E22"/>
<path d="M12 0C11.172 0 10.5 0.6 10.5 1.5C10.5 1.6 10.534 1.8 10.594 2C9.2327 2.2 8.1406 2.7 7.3438 3.5C6.4976 4.3 6.0937 5.39993 6.0938 6.79993C6.0937 9.09993 5.6362 11.2 4.7812 13.2C3.9263 15.3 2.6747 16.8999 1 18.2999C1 18.7999 1.1651 19.1 1.5 19.5C1.8349 19.8 2.2292 20 2.6875 20H5.9688H8.5938H9.0625H9.6562H10.094H10.656H12V0Z" fill="#F39C12"/>
<path d="M9 20C9 20.3 9.074 20.6 9.1875 21H14.812C14.926 20.6 15 20.3 15 20H9Z" fill="#E67E22"/>
</svg>
